<svg id="visual" viewBox="0 0 3840 540" width="3840" height="540" xmlns="http://www.w3.org/2000/svg" xmlns:xlink="http://www.w3.org/1999/xlink" version="1.1"><rect x="0" y="0" width="3840" height="540" fill="#001122"></rect><path d="M0 343L64 341.7C128 340.3 256 337.7 384 333C512 328.3 640 321.7 768 330.2C896 338.7 1024 362.3 1152 363.8C1280 365.3 1408 344.7 1536 333.8C1664 323 1792 322 1920 333.8C2048 345.7 2176 370.3 2304 382.7C2432 395 2560 395 2688 382.2C2816 369.3 2944 343.7 3072 331.8C3200 320 3328 322 3456 322.2C3584 322.3 3712 320.7 3776 319.8L3840 319L3840 541L3776 541C3712 541 3584 541 3456 541C3328 541 3200 541 3072 541C2944 541 2816 541 2688 541C2560 541 2432 541 2304 541C2176 541 2048 541 1920 541C1792 541 1664 541 1536 541C1408 541 1280 541 1152 541C1024 541 896 541 768 541C640 541 512 541 384 541C256 541 128 541 64 541L0 541Z" fill="#4a5d79"></path><path d="M0 394L64 393.8C128 393.7 256 393.3 384 393.8C512 394.3 640 395.7 768 393.3C896 391 1024 385 1152 386.2C1280 387.3 1408 395.7 1536 397C1664 398.3 1792 392.7 1920 390C2048 387.3 2176 387.7 2304 390.8C2432 394 2560 400 2688 395.5C2816 391 2944 376 3072 379.2C3200 382.3 3328 403.7 3456 415.3C3584 427 3712 429 3776 430L3840 431L3840 541L3776 541C3712 541 3584 541 3456 541C3328 541 3200 541 3072 541C2944 541 2816 541 2688 541C2560 541 2432 541 2304 541C2176 541 2048 541 1920 541C1792 541 1664 541 1536 541C1408 541 1280 541 1152 541C1024 541 896 541 768 541C640 541 512 541 384 541C256 541 128 541 64 541L0 541Z" fill="#374354"></path><path d="M0 422L64 424.8C128 427.7 256 433.3 384 442C512 450.7 640 462.3 768 468.2C896 474 1024 474 1152 464.8C1280 455.7 1408 437.3 1536 431.3C1664 425.3 1792 431.7 1920 440.5C2048 449.3 2176 460.7 2304 461.3C2432 462 2560 452 2688 446.2C2816 440.3 2944 438.7 3072 438C3200 437.3 3328 437.7 3456 438.2C3584 438.7 3712 439.3 3776 439.7L3840 440L3840 541L3776 541C3712 541 3584 541 3456 541C3328 541 3200 541 3072 541C2944 541 2816 541 2688 541C2560 541 2432 541 2304 541C2176 541 2048 541 1920 541C1792 541 1664 541 1536 541C1408 541 1280 541 1152 541C1024 541 896 541 768 541C640 541 512 541 384 541C256 541 128 541 64 541L0 541Z" fill="#252a31"></path><path d="M0 472L64 471.7C128 471.3 256 470.7 384 474.2C512 477.7 640 485.3 768 490.3C896 495.3 1024 497.7 1152 495.2C1280 492.7 1408 485.3 1536 483.5C1664 481.7 1792 485.3 1920 485.7C2048 486 2176 483 2304 478.5C2432 474 2560 468 2688 466.3C2816 464.7 2944 467.3 3072 474.7C3200 482 3328 494 3456 499C3584 504 3712 502 3776 501L3840 500L3840 541L3776 541C3712 541 3584 541 3456 541C3328 541 3200 541 3072 541C2944 541 2816 541 2688 541C2560 541 2432 541 2304 541C2176 541 2048 541 1920 541C1792 541 1664 541 1536 541C1408 541 1280 541 1152 541C1024 541 896 541 768 541C640 541 512 541 384 541C256 541 128 541 64 541L0 541Z" fill="#121212"></path></svg>